<svg xmlns="http://www.w3.org/2000/svg" xmlns:xlink="http://www.w3.org/1999/xlink" width="500" zoomAndPan="magnify" viewBox="0 0 375 374.999991" height="500" preserveAspectRatio="xMidYMid meet" version="1.0"><path fill="#515357" d="M 349.84375 97.96875 C 333.078125 69.242188 310.335938 46.5 281.609375 29.734375 C 252.882812 12.96875 221.519531 4.585938 187.496094 4.585938 C 153.480469 4.585938 122.105469 12.972656 93.382812 29.734375 C 64.65625 46.5 41.914062 69.242188 25.148438 97.96875 C 8.382812 126.699219 0 158.066406 0 192.078125 C 0 232.9375 11.921875 269.675781 35.765625 302.304688 C 59.609375 334.941406 90.410156 357.519531 128.167969 370.050781 C 132.566406 370.867188 135.820312 370.292969 137.933594 368.34375 C 140.050781 366.394531 141.105469 363.949219 141.105469 361.023438 C 141.105469 360.535156 141.066406 356.144531 140.984375 347.839844 C 140.902344 339.539062 140.859375 332.296875 140.859375 326.117188 L 135.246094 327.089844 C 131.664062 327.742188 127.148438 328.023438 121.695312 327.941406 C 116.246094 327.867188 110.585938 327.296875 104.730469 326.234375 C 98.867188 325.179688 93.417969 322.738281 88.371094 318.914062 C 83.328125 315.089844 79.746094 310.082031 77.632812 303.902344 L 75.191406 298.285156 C 73.5625 294.546875 71 290.390625 67.5 285.835938 C 64 281.277344 60.460938 278.1875 56.882812 276.558594 L 55.171875 275.335938 C 54.035156 274.523438 52.976562 273.542969 52 272.402344 C 51.023438 271.265625 50.292969 270.128906 49.804688 268.988281 C 49.3125 267.84375 49.71875 266.910156 51.023438 266.175781 C 52.328125 265.441406 54.683594 265.082031 58.105469 265.082031 L 62.984375 265.8125 C 66.238281 266.464844 70.265625 268.414062 75.070312 271.671875 C 79.871094 274.925781 83.816406 279.15625 86.910156 284.363281 C 90.65625 291.035156 95.167969 296.121094 100.457031 299.621094 C 105.746094 303.121094 111.078125 304.871094 116.449219 304.871094 C 121.816406 304.871094 126.457031 304.460938 130.363281 303.652344 C 134.265625 302.839844 137.929688 301.613281 141.347656 299.988281 C 142.8125 289.078125 146.800781 280.699219 153.308594 274.839844 C 144.035156 273.867188 135.695312 272.398438 128.285156 270.445312 C 120.882812 268.492188 113.234375 265.316406 105.339844 260.917969 C 97.445312 256.527344 90.894531 251.070312 85.6875 244.566406 C 80.480469 238.054688 76.203125 229.507812 72.871094 218.929688 C 69.535156 208.347656 67.867188 196.144531 67.867188 182.308594 C 67.867188 162.613281 74.296875 145.851562 87.15625 132.015625 C 81.132812 117.207031 81.699219 100.605469 88.863281 82.214844 C 93.582031 80.75 100.582031 81.847656 109.859375 85.511719 C 119.136719 89.171875 125.929688 92.308594 130.246094 94.910156 C 134.558594 97.511719 138.015625 99.714844 140.621094 101.503906 C 155.761719 97.273438 171.382812 95.15625 187.496094 95.15625 C 203.605469 95.15625 219.234375 97.273438 234.375 101.503906 L 243.652344 95.644531 C 249.996094 91.738281 257.484375 88.15625 266.105469 84.902344 C 274.734375 81.648438 281.328125 80.75 285.890625 82.21875 C 293.210938 100.609375 293.863281 117.210938 287.835938 132.019531 C 300.695312 145.855469 307.128906 162.621094 307.128906 182.3125 C 307.128906 196.144531 305.453125 208.390625 302.121094 219.050781 C 298.789062 229.714844 294.476562 238.253906 289.191406 244.6875 C 283.894531 251.117188 277.304688 256.53125 269.410156 260.921875 C 261.515625 265.316406 253.863281 268.488281 246.460938 270.445312 C 239.054688 272.398438 230.714844 273.867188 221.4375 274.84375 C 229.898438 282.164062 234.128906 293.722656 234.128906 309.507812 L 234.128906 361.015625 C 234.128906 363.945312 235.144531 366.386719 237.183594 368.339844 C 239.21875 370.289062 242.429688 370.859375 246.824219 370.042969 C 284.589844 357.515625 315.390625 334.933594 339.234375 302.300781 C 363.074219 269.667969 374.996094 232.929688 374.996094 192.074219 C 374.988281 158.066406 366.601562 126.699219 349.84375 97.96875 Z M 349.84375 97.96875 " fill-opacity="1" fill-rule="nonzero"/></svg>