<svg xmlns="http://www.w3.org/2000/svg" xmlns:xlink="http://www.w3.org/1999/xlink" width="500" zoomAndPan="magnify" viewBox="0 0 375 374.999991" height="500" preserveAspectRatio="xMidYMid meet" version="1.0"><defs><clipPath id="5a08d9cdf7"><path d="M 2 3.46875 L 374.621094 3.46875 L 374.621094 371.628906 L 2 371.628906 Z M 2 3.46875 " clip-rule="nonzero"/></clipPath></defs><g clip-path="url(#5a08d9cdf7)"><path fill="#2083a4" d="M 9.804688 208.03125 C -0.378906 197.851562 -0.378906 181.351562 9.804688 171.171875 L 169.957031 11.101562 C 175.046875 6.011719 181.726562 3.46875 188.40625 3.46875 C 195.0625 3.46875 201.742188 6.011719 206.832031 11.101562 L 366.984375 171.171875 C 377.167969 181.351562 377.167969 197.851562 366.984375 208.03125 C 356.800781 218.207031 340.292969 218.207031 330.085938 208.03125 L 188.40625 66.398438 L 46.703125 208.03125 C 36.496094 218.207031 19.988281 218.207031 9.804688 208.03125 Z M 206.832031 167.066406 C 201.742188 161.976562 195.0625 159.433594 188.40625 159.433594 C 181.726562 159.433594 175.046875 161.976562 169.957031 167.066406 L 9.804688 327.113281 C -0.378906 337.316406 -0.378906 353.816406 9.804688 363.996094 C 19.988281 374.171875 36.496094 374.171875 46.703125 363.996094 L 188.40625 222.363281 L 330.085938 363.996094 C 340.292969 374.171875 356.800781 374.171875 366.984375 363.996094 C 377.167969 353.816406 377.167969 337.316406 366.984375 327.113281 Z M 206.832031 167.066406 " fill-opacity="1" fill-rule="nonzero"/></g></svg>