<svg xmlns="http://www.w3.org/2000/svg" xmlns:xlink="http://www.w3.org/1999/xlink" width="500" zoomAndPan="magnify" viewBox="0 0 375 374.999991" height="500" preserveAspectRatio="xMidYMid meet" version="1.0"><path fill="#515357" d="M 187.464844 374.976562 C 84.121094 374.976562 0.0546875 290.914062 0.0546875 187.582031 C 0.0546875 84.164062 84.121094 0.03125 187.464844 0.03125 C 290.84375 0.03125 374.945312 84.164062 374.945312 187.582031 C 374.945312 290.90625 290.84375 374.976562 187.464844 374.976562 Z M 187.464844 11.777344 C 90.605469 11.777344 11.808594 90.640625 11.808594 187.578125 C 11.808594 284.425781 90.605469 363.214844 187.464844 363.214844 C 284.359375 363.214844 363.191406 284.425781 363.191406 187.578125 C 363.191406 90.640625 284.359375 11.777344 187.464844 11.777344 Z M 121.828125 292.96875 C 120.269531 292.96875 118.773438 292.351562 117.671875 291.25 L 82.175781 255.765625 C 79.878906 253.472656 79.878906 249.75 82.175781 247.453125 L 143.667969 185.929688 L 82.175781 124.4375 C 79.882812 122.144531 79.878906 118.425781 82.171875 116.125 L 117.667969 80.554688 C 118.773438 79.449219 120.265625 78.832031 121.828125 78.832031 C 123.386719 78.832031 124.882812 79.449219 125.984375 80.554688 L 187.464844 142.054688 L 249.027344 80.554688 C 251.320312 78.261719 255.042969 78.261719 257.339844 80.554688 L 292.804688 116.027344 C 295.105469 118.320312 295.105469 122.039062 292.804688 124.335938 L 231.296875 185.929688 L 292.804688 247.453125 C 295.105469 249.75 295.105469 253.464844 292.804688 255.765625 L 257.339844 291.25 C 255.136719 293.453125 251.230469 293.457031 249.023438 291.25 L 187.464844 229.714844 L 125.984375 291.25 C 124.882812 292.351562 123.386719 292.96875 121.828125 292.96875 Z M 187.464844 215.523438 C 189.023438 215.523438 190.519531 216.140625 191.621094 217.246094 L 253.179688 278.789062 L 280.339844 251.613281 L 218.835938 190.085938 C 216.535156 187.792969 216.535156 184.074219 218.835938 181.773438 L 280.34375 120.183594 L 253.183594 93.015625 L 191.613281 154.527344 C 189.320312 156.816406 185.601562 156.816406 183.304688 154.527344 L 121.828125 93.03125 L 94.636719 120.28125 L 156.128906 181.78125 C 158.429688 184.078125 158.429688 187.792969 156.128906 190.09375 L 94.644531 251.609375 L 121.828125 278.78125 L 183.308594 217.246094 C 184.410156 216.140625 185.902344 215.523438 187.464844 215.523438 Z M 187.464844 215.523438 " fill-opacity="1" fill-rule="nonzero"/></svg>