<svg xmlns="http://www.w3.org/2000/svg" xmlns:xlink="http://www.w3.org/1999/xlink" width="500" zoomAndPan="magnify" viewBox="0 0 375 374.999991" height="500" preserveAspectRatio="xMidYMid meet" version="1.0"><path fill="#a6a6a6" d="M 286.648438 216.449219 C 285.335938 226.199219 282.261719 235.460938 277.761719 244.011719 C 272.8125 253.425781 266.136719 261.9375 258.113281 269.210938 C 248.886719 277.539062 237.898438 284.289062 225.675781 288.863281 C 213.898438 293.289062 201 295.726562 187.5 295.726562 C 174 295.726562 161.136719 293.289062 149.324219 288.863281 C 137.101562 284.289062 126.113281 277.539062 116.886719 269.210938 C 108.863281 261.9375 102.1875 253.425781 97.238281 244.011719 C 92.738281 235.460938 89.699219 226.199219 88.351562 216.449219 L 25.199219 216.449219 C 26.625 233.851562 31.425781 250.386719 38.960938 265.574219 C 47.136719 281.960938 58.5 296.773438 72.375 309.335938 C 87.375 322.914062 105.300781 333.863281 125.210938 341.324219 C 144.375 348.523438 165.414062 352.460938 187.5 352.460938 C 209.585938 352.460938 230.625 348.523438 249.789062 341.324219 C 269.699219 333.863281 287.664062 322.914062 302.664062 309.335938 C 316.5 296.773438 327.898438 281.960938 336.039062 265.574219 C 343.574219 250.386719 348.375 233.851562 349.835938 216.449219 Z M 273.335938 242.0625 C 277.875 233.476562 280.875 224.0625 282 214.125 C 282.039062 212.925781 283.125 211.949219 284.476562 211.949219 L 352.613281 211.949219 C 353.960938 212.023438 355.011719 213.074219 354.9375 214.351562 C 353.699219 233.175781 348.675781 251.0625 340.539062 267.414062 C 332.136719 284.324219 320.398438 299.585938 306.113281 312.523438 C 290.664062 326.511719 272.210938 337.800781 251.664062 345.488281 C 231.898438 352.875 210.226562 357 187.5 357 C 164.773438 357 143.136719 352.875 123.335938 345.488281 C 102.824219 337.800781 84.335938 326.511719 68.886719 312.523438 C 54.601562 299.585938 42.863281 284.324219 34.460938 267.414062 C 26.363281 251.101562 21.335938 233.25 20.101562 214.5 C 20.101562 214.386719 20.0625 214.3125 20.0625 214.199219 C 20.0625 212.960938 21.1875 211.949219 22.539062 211.949219 L 90.5625 211.949219 C 91.800781 211.949219 92.886719 212.8125 93 213.976562 C 94.125 223.949219 97.125 233.398438 101.664062 242.0625 C 106.386719 250.988281 112.726562 259.085938 120.375 266.023438 C 129.148438 273.9375 139.613281 280.351562 151.199219 284.699219 C 162.375 288.898438 174.636719 291.226562 187.5 291.226562 C 200.363281 291.226562 212.625 288.898438 223.800781 284.699219 C 235.425781 280.351562 245.886719 273.9375 254.625 266.023438 C 262.273438 259.085938 268.648438 250.988281 273.335938 242.0625 Z M 262.726562 169.800781 C 262.726562 160.574219 260.699219 151.800781 257.023438 143.8125 C 253.238281 135.488281 247.648438 127.988281 240.75 121.726562 C 233.8125 115.460938 225.523438 110.398438 216.300781 106.949219 C 207.449219 103.613281 197.738281 101.8125 187.5 101.8125 C 177.300781 101.8125 167.550781 103.613281 158.699219 106.949219 C 149.476562 110.398438 141.226562 115.460938 134.289062 121.726562 C 127.351562 127.988281 121.761719 135.488281 117.976562 143.8125 C 114.300781 151.800781 112.273438 160.574219 112.273438 169.800781 C 112.273438 172.914062 110.925781 175.726562 108.675781 177.789062 C 106.425781 179.8125 103.351562 181.085938 99.9375 181.085938 L 12.375 181.085938 C 8.960938 181.085938 5.851562 179.8125 3.636719 177.789062 C 1.386719 175.726562 0 172.914062 0 169.800781 C 0 146.851562 5.0625 124.914062 14.210938 104.886719 C 23.738281 84.113281 37.6875 65.398438 54.976562 49.761719 C 72.261719 34.085938 92.925781 21.488281 115.875 12.863281 C 137.960938 4.574219 162.148438 0 187.5 0 C 212.851562 0 237.074219 4.574219 259.164062 12.863281 C 282.074219 21.488281 302.738281 34.085938 320.023438 49.761719 C 337.351562 65.398438 351.261719 84.113281 360.789062 104.886719 C 369.9375 124.914062 375 146.8125 375 169.800781 C 375 172.914062 373.613281 175.726562 371.398438 177.75 C 369.148438 179.8125 366.074219 181.085938 362.664062 181.085938 L 275.0625 181.085938 C 271.648438 181.085938 268.574219 179.8125 266.324219 177.789062 C 264.113281 175.726562 262.726562 172.914062 262.726562 169.800781 Z M 261.601562 142.085938 C 265.5 150.636719 267.675781 159.976562 267.675781 169.800781 C 267.675781 171.675781 268.5 173.363281 269.851562 174.601562 C 271.164062 175.800781 273.039062 176.585938 275.0625 176.585938 L 362.664062 176.585938 C 364.726562 176.585938 366.5625 175.800781 367.875 174.601562 C 369.226562 173.363281 370.050781 171.675781 370.050781 169.800781 C 370.050781 147.414062 365.136719 126.074219 356.25 106.613281 C 346.988281 86.398438 333.414062 68.175781 316.574219 52.914062 C 299.699219 37.6875 279.601562 25.386719 257.289062 17.023438 C 235.800781 8.960938 212.210938 4.5 187.5 4.5 C 162.789062 4.5 139.238281 8.960938 117.75 17.023438 C 95.398438 25.386719 75.300781 37.6875 58.460938 52.914062 C 41.625 68.175781 28.050781 86.398438 18.789062 106.613281 C 9.863281 126.074219 4.949219 147.414062 4.949219 169.800781 C 4.949219 171.675781 5.773438 173.363281 7.125 174.601562 C 8.476562 175.800781 10.3125 176.585938 12.375 176.585938 L 99.9375 176.585938 C 102 176.585938 103.835938 175.800781 105.1875 174.601562 C 106.5 173.363281 107.363281 171.675781 107.363281 169.800781 C 107.363281 159.976562 109.5 150.636719 113.398438 142.085938 C 117.488281 133.199219 123.414062 125.210938 130.800781 118.539062 C 138.1875 111.863281 147 106.460938 156.824219 102.789062 C 166.273438 99.261719 176.664062 97.273438 187.5 97.273438 C 198.375 97.273438 208.726562 99.261719 218.175781 102.789062 C 228 106.460938 236.8125 111.863281 244.199219 118.539062 C 251.585938 125.210938 257.550781 133.199219 261.601562 142.085938 Z M 258.113281 105.789062 C 266.136719 113.0625 272.8125 121.574219 277.761719 130.988281 C 282.261719 139.539062 285.335938 148.800781 286.648438 158.550781 L 349.835938 158.550781 C 348.375 141.148438 343.574219 124.613281 336.039062 109.425781 C 327.898438 93.039062 316.5 78.226562 302.664062 65.664062 C 287.664062 52.085938 269.699219 41.136719 249.789062 33.675781 C 230.625 26.476562 209.585938 22.539062 187.5 22.539062 C 165.414062 22.539062 144.375 26.476562 125.210938 33.675781 C 105.300781 41.136719 87.375 52.085938 72.375 65.664062 C 58.5 78.226562 47.136719 93.039062 38.960938 109.425781 C 31.425781 124.613281 26.625 141.148438 25.199219 158.550781 L 88.351562 158.550781 C 89.699219 148.800781 92.738281 139.539062 97.238281 130.988281 C 102.1875 121.574219 108.863281 113.0625 116.886719 105.789062 C 126.113281 97.460938 137.101562 90.710938 149.324219 86.136719 C 161.136719 81.710938 174 79.273438 187.5 79.273438 C 201 79.273438 213.898438 81.710938 225.675781 86.136719 C 237.898438 90.710938 248.886719 97.460938 258.113281 105.789062 Z M 273.335938 132.9375 C 268.648438 124.011719 262.273438 115.914062 254.625 108.976562 C 245.886719 101.0625 235.425781 94.648438 223.800781 90.300781 C 212.625 86.101562 200.363281 83.773438 187.5 83.773438 C 174.636719 83.773438 162.375 86.101562 151.199219 90.300781 C 139.613281 94.648438 129.148438 101.0625 120.375 108.976562 C 112.726562 115.914062 106.386719 124.011719 101.664062 132.9375 C 97.164062 141.523438 94.164062 150.9375 93.039062 160.875 C 92.960938 162.074219 91.875 163.050781 90.5625 163.050781 L 22.386719 163.050781 C 21.039062 162.976562 19.988281 161.925781 20.101562 160.648438 C 21.335938 141.824219 26.363281 123.9375 34.460938 107.585938 C 42.863281 90.675781 54.601562 75.414062 68.886719 62.476562 C 84.335938 48.488281 102.824219 37.199219 123.335938 29.511719 C 143.136719 22.125 164.773438 18 187.5 18 C 210.226562 18 231.898438 22.125 251.664062 29.511719 C 272.210938 37.199219 290.664062 48.488281 306.113281 62.476562 C 320.398438 75.414062 332.136719 90.675781 340.539062 107.585938 C 348.636719 123.898438 353.664062 141.75 354.898438 160.5 C 354.9375 160.613281 354.9375 160.6875 354.9375 160.800781 C 354.9375 162.039062 353.851562 163.050781 352.460938 163.050781 L 284.476562 163.050781 C 283.199219 163.050781 282.148438 162.1875 282 161.023438 C 280.875 151.050781 277.875 141.601562 273.335938 132.9375 Z M 240.75 253.273438 C 247.648438 247.011719 253.238281 239.511719 257.023438 231.1875 C 260.699219 223.199219 262.726562 214.425781 262.726562 205.199219 C 262.726562 202.085938 264.113281 199.273438 266.324219 197.210938 C 268.574219 195.1875 271.648438 193.914062 275.0625 193.914062 L 362.664062 193.914062 C 366.074219 193.914062 369.148438 195.1875 371.398438 197.25 C 373.613281 199.273438 375 202.085938 375 205.199219 C 375 228.1875 369.9375 250.085938 360.789062 270.113281 C 351.261719 290.886719 337.351562 309.601562 320.023438 325.238281 C 302.738281 340.914062 282.074219 353.511719 259.164062 362.136719 C 237.074219 370.425781 212.851562 375 187.5 375 C 162.148438 375 137.960938 370.425781 115.875 362.136719 C 92.925781 353.511719 72.261719 340.914062 54.976562 325.238281 C 37.6875 309.601562 23.738281 290.886719 14.210938 270.113281 C 5.0625 250.085938 0 228.148438 0 205.199219 C 0 202.085938 1.386719 199.273438 3.636719 197.210938 C 5.851562 195.1875 8.960938 193.914062 12.375 193.914062 L 99.9375 193.914062 C 103.351562 193.914062 106.425781 195.1875 108.675781 197.210938 C 110.925781 199.273438 112.273438 202.085938 112.273438 205.199219 C 112.273438 214.425781 114.300781 223.199219 117.976562 231.1875 C 121.761719 239.511719 127.351562 247.011719 134.289062 253.273438 C 141.226562 259.539062 149.476562 264.601562 158.699219 268.050781 C 167.550781 271.386719 177.300781 273.1875 187.5 273.1875 C 197.738281 273.1875 207.449219 271.386719 216.300781 268.050781 C 225.523438 264.601562 233.8125 259.539062 240.75 253.273438 Z M 261.601562 232.914062 C 257.550781 241.800781 251.585938 249.789062 244.199219 256.460938 C 236.8125 263.136719 228 268.539062 218.175781 272.210938 C 208.726562 275.738281 198.375 277.726562 187.5 277.726562 C 176.664062 277.726562 166.273438 275.738281 156.824219 272.210938 C 147 268.539062 138.1875 263.136719 130.800781 256.460938 C 123.414062 249.789062 117.488281 241.800781 113.398438 232.914062 C 109.5 224.363281 107.363281 215.023438 107.363281 205.199219 C 107.363281 203.324219 106.5 201.636719 105.1875 200.398438 C 103.835938 199.199219 102 198.414062 99.9375 198.414062 L 12.375 198.414062 C 10.3125 198.414062 8.476562 199.199219 7.125 200.398438 C 5.773438 201.636719 4.949219 203.324219 4.949219 205.199219 C 4.949219 227.585938 9.863281 248.925781 18.789062 268.386719 C 28.050781 288.601562 41.625 306.824219 58.460938 322.085938 C 75.300781 337.3125 95.398438 349.613281 117.75 357.976562 C 139.238281 366.039062 162.789062 370.5 187.5 370.5 C 212.210938 370.5 235.800781 366.039062 257.289062 357.976562 C 279.601562 349.613281 299.699219 337.3125 316.574219 322.085938 C 333.414062 306.824219 346.988281 288.601562 356.25 268.386719 C 365.136719 248.925781 370.050781 227.585938 370.050781 205.199219 C 370.050781 203.324219 369.226562 201.636719 367.875 200.398438 C 366.5625 199.199219 364.726562 198.414062 362.664062 198.414062 L 275.0625 198.414062 C 273.039062 198.414062 271.164062 199.199219 269.851562 200.398438 C 268.5 201.636719 267.675781 203.324219 267.675781 205.199219 C 267.675781 215.023438 265.5 224.363281 261.601562 232.914062 Z M 261.601562 232.914062 " fill-opacity="1" fill-rule="nonzero"/></svg>